# AST/ASF file generated using VICON BodyLanguage
# -----------------------------------------------
:version 1.10
:name VICON
:units
  mass 1.0
  length 0.45
  angle deg
:documentation
   .ast/.asf automatically generated from VICON data using
   VICON BodyBuilder and BodyLanguage model FoxedUp or BRILLIANT.MOD
:root
   order TX TY TZ RX RY RZ
   axis XYZ
   position 0 0 0  
   orientation 0 0 0 
:bonedata
  begin
     id 1 
     name lhipjoint
     direction 0.575328 -0.747301 0.332475 
     length 2.40933 
     axis 0 0 0  XYZ
  end
  begin
     id 2 
     name lfemur
     direction 0.34202 -0.939693 0  
     length 7.31453  
     axis 0 0 20  XYZ
    dof rx ry rz
    limits (-160.0 20.0)
           (-70.0 70.0)
           (-60.0 70.0)
  end
  begin
     id 3 
     name ltibia
     direction 0.34202 -0.939693 0   
     length 7.82185   
     axis 0 0 20   XYZ
    dof rx
    limits (-10.0 170.0)
  end
  begin
     id 4 
     name lfoot
     direction 0.0795993 -0.218697 0.972541   
     length 2.19173   
     axis -90 7.62852e-016 20   XYZ
    dof rx rz
    limits (-45.0 90.0)
           (-70.0 20.0)
  end
  begin
     id 5 
     name ltoes
     direction 1.53537e-011 -4.21894e-011 1   
     length 1.10023   
     axis -90 7.62852e-016 20   XYZ
    dof rx
    limits (-90.0 20.0)
  end
  begin
     id 6 
     name rhipjoint
     direction -0.513884 -0.783789 0.348708   
     length 2.29716  
     axis 0 0 0  XYZ 
  end
  begin
     id 7 
     name rfemur
     direction -0.34202 -0.939693 0   
     length 7.59573   
     axis 0 0 -20   XYZ
    dof rx ry rz
    limits (-160.0 20.0)
           (-70.0 70.0)
           (-70.0 60.0)
  end
  begin
     id 8 
     name rtibia
     direction -0.34202 -0.939693 0   
     length 7.66402   
     axis 0 0 -20   XYZ
    dof rx
    limits (-10.0 170.0)
 end
 begin
     id 9 
     name rfoot
     direction -0.137793 -0.378584 0.915253   
     length 2.27056  
     axis -90 -7.62852e-016 -20   XYZ
    dof rx rz
    limits (-45.0 90.0)
           (-20.0 70.0)
  end
  begin
     id 10 
     name rtoes
     direction -1.53493e-011 -4.22159e-011 1   
     length 1.11766   
     axis -90 -7.62852e-016 -20   XYZ
    dof rx
    limits (-90.0 20.0)
  end
  begin
     id 11 
     name lowerback
     direction -0.00732775 0.998356 -0.05685   
     length 2.16513   
     axis 0 0 0   XYZ
    dof rx ry rz
    limits (-20.0 45.0)
           (-30.0 30.0)
           (-30.0 30.0)
  end
  begin
     id 12 
     name upperback
     direction 0.0218081 0.999627 -0.0164647   
     length 2.16755   
     axis 0 0 0   XYZ
    dof rx ry rz
    limits (-20.0 45.0)
           (-30.0 30.0)
           (-30.0 30.0)
  end
  begin
     id 13 
     name thorax
     direction 0.02365 0.999661 0.0108914   
     length 2.16932   
     axis 0 0 0   XYZ
    dof rx ry rz
    limits (-20.0 45.0)
           (-30.0 30.0)
           (-30.0 30.0)
  end
  begin
     id 14 
     name lowerneck
     direction -0.0523929 0.978385 0.200044   
     length 1.63877   
     axis 0 0 0   XYZ
    dof rx ry rz
    limits (-20.0 45.0)
           (-30.0 30.0)
           (-30.0 30.0)
  end
  begin
     id 15 
     name upperneck
     direction 0.0448674 0.981321 -0.187074   
     length 1.69014   
     axis 0 0 0   XYZ
    dof rx ry rz
    limits (-20.0 45.0)
           (-30.0 30.0)
           (-30.0 30.0)
  end
  begin
     id 16
     name head
     direction 0.0199089 0.996118 -0.0857429  
     length 1.70094  
     axis 0 0 0   XYZ
    dof rx ry rz
    limits (-20.0 45.0)
           (-30.0 30.0)
           (-30.0 30.0)
  end
  begin
     id 17 
     name lclavicle
     direction 0.940366 0.30191 -0.156722  
     length 3.37521  
     axis 0 0 0   XYZ
    dof ry rz
    limits (-20.0 10.0)
           (0.0 20.0)
  end
  begin
     id 18 
     name lhumerus
     direction 1 -4.4897e-011 -1.7911e-027   
     length 5.25287   
     axis 180 -30 -90   XYZ
    dof rx ry rz
    limits (-60.0 90.0)
           (-90.0 90.0)
           (-90.0 90.0)
  end
  begin
     id 19
     name lradius
     direction 1 -4.48951e-011 1.04424e-027   
     length 3.51014   
     axis 180 -30 -90   XYZ
    dof rx
    limits (-10.0 170.0)
  end
  begin
     id 20
     name lwrist
     direction 1 -4.48997e-011 -9.5942e-028   
     length 1.75507   
     axis 8.48502e-016 90 90   XYZ
    dof ry
    limits (-180.0 0.0)
 end
  begin
     id 21 
     name lhand
     direction 1 -4.48831e-011 -1.90777e-027   
     length 0.706179   
     axis 1.22306e-015 90 90   XYZ
    dof rx rz
    limits (-90.0 90.0)
           (-45.0 45.0)
  end
  begin
     id 22 
     name lfingers
     direction 1 -4.49108e-011 -3.85244e-027   
     length 0.569339   
     axis 2.44611e-015 90 90   XYZ
    dof rx
    limits (0.0 90.0)
  end
  begin
     id 23
     name lthumb
     direction 0.707107 -6.34953e-011 0.707107   
     length 0.817461   
     axis -90 45 -1.62303e-014   XYZ
    dof rx rz
    limits (-45.0 45.0)
           (-45.0 45.0)
  end
  begin
     id 24 
     name rclavicle
     direction -0.905329 0.382405 -0.184787   
     length 3.30787  
     axis 0 0 0   XYZ 
    dof ry rz
    limits (-10.0 20.0)
           (-20.0 0.0)
  end
  begin
     id 25 
     name rhumerus
     direction -1 -4.48953e-011 -9.15316e-029  
     length 5.28721   
     axis 180 30 90   XYZ
    dof rx ry rz
    limits (-90.0 60.0)
           (-90.0 90.0)
           (-90.0 90.0)
  end
  begin
     id 26 
     name rradius
     direction -1 -4.48987e-011 9.37824e-028   
     length 3.50544   
     axis 180 30 90   XYZ
    dof rx
    limits (-10.0 170.0)
  end
  begin
     id 27 
     name rwrist
     direction -1 -4.48967e-011 -9.58414e-028   
     length 1.75272   
     axis 8.48502e-016 -90 -90   XYZ
    dof ry
    limits (-180.0 0.0)
  end
  begin
     id 28
     name rhand
     direction -1 -4.48904e-011 -1.91266e-027   
     length 0.884996   
     axis 1.22306e-015 -90 -90   XYZ
    dof rx rz
    limits (-90.0 90.0)
           (-45.0 45.0)
  end
  begin
     id 29
     name rfingers
     direction -1 -4.4909e-011 -3.85015e-027   
     length 0.713507   
     axis 2.44611e-015 -90 -90   XYZ
    dof rx
    limits (0.0 90.0)
  end
  begin
     id 30
     name rthumb
     direction -0.707107 -6.34853e-011 0.707107   
     length 1.02446   
     axis -90 -45 1.62303e-014   XYZ
    dof rx rz
    limits (-45.0 45.0)
           (-45.0 45.0)
  end
:hierarchy
  begin
    root lhipjoint rhipjoint lowerback
    lhipjoint lfemur
    lfemur ltibia
    ltibia lfoot
    lfoot ltoes
    rhipjoint rfemur
    rfemur rtibia
    rtibia rfoot
    rfoot rtoes
    lowerback upperback
    upperback thorax
    thorax lowerneck lclavicle rclavicle
    lowerneck upperneck
    upperneck head
    lclavicle lhumerus
    lhumerus lradius
    lradius lwrist
    lwrist lhand lthumb
    lhand lfingers
    rclavicle rhumerus
    rhumerus rradius
    rradius rwrist
    rwrist rhand rthumb
    rhand rfingers
  end

#!OML:ASF F:\twosubjects\two\Thursday\Session 1\justin.ASF
:FULLY-SPECIFIED
:DEGREES
34
root 13.3413 17.9522 -1.91453 3.82095 -42.3058 3.52492
lowerback -0.687887 0.475039 -4.03417
upperback 0.55855 0.659492 2.00705
thorax 0.891196 0.296353 4.34314
lowerneck -19.4761 -4.55339 -10.013
upperneck 26.4548 -5.22874 6.24412
head 12.4473 -2.58282 3.19686
rclavicle 2.9122e-014 -3.97569e-015
rhumerus -30.6343 -25.568 -68.1582
rradius 28.9724
rwrist -1.09783
rhand -14.2369 10.4457
rfingers 7.12502
rthumb 11.9007 -19.1961
lclavicle 2.9122e-014 -3.97569e-015
lhumerus -33.7664 17.5502 74.9225
lradius 29.4985
lwrist -8.45129
lhand -8.036 37.9178
lfingers 7.12502
lthumb 17.8742 67.1164
rfemur -17.3285 -4.98341 16.35
rtibia 37.3236
rfoot -23.9927 -16.0011
rtoes -14.5697
lfemur -10.401 2.50417 -17.4458
ltibia 22.719
lfoot -15.1533 4.63443
ltoes -16.1343
35
root 13.3334 17.9459 -1.91062 3.81038 -42.2516 3.52012
lowerback -0.769599 0.582844 -3.9408
upperback 0.646038 0.80557 1.99888
thorax 1.01301 0.365408 4.28527
lowerneck -19.4158 -4.58329 -9.95971
upperneck 26.3473 -5.28973 6.24813
head 12.3966 -2.60278 3.17755
rclavicle -8.02096e-014 -3.18055e-015
rhumerus -30.7916 -25.6169 -68.0028
rradius 29.182
rwrist -1.41989
rhand -13.9963 10.3378
rfingers 7.12502
rthumb 12.1327 -19.2904
lclavicle -8.02096e-014 -3.18055e-015
lhumerus -33.6943 17.5445 74.9857
lradius 29.428
lwrist -9.10735
lhand -7.25916 37.8707
lfingers 7.12502
lthumb 18.6216 66.9994
rfemur -17.2506 -5.0801 16.3273
rtibia 37.3195
rfoot -23.9706 -15.8304
rtoes -13.2154
lfemur -10.4037 2.82946 -17.4831
ltibia 22.7366
lfoot -15.1233 4.67805
ltoes -20.1965
36
root 13.3236 17.9411 -1.9108 4.05217 -42.1006 3.29557
lowerback -0.858867 0.676913 -3.83333
upperback 0.617149 0.930509 2.15654
thorax 1.01953 0.428372 4.39085
lowerneck -19.4411 -4.77255 -10.3396
upperneck 26.5529 -5.46743 6.32135
head 12.5185 -2.71303 3.24315
rclavicle 2.20651e-014 2.54444e-014
rhumerus -31.0186 -25.5638 -67.6255
rradius 29.3494
rwrist -1.68508
rhand -13.8908 10.3804
rfingers 7.12502
rthumb 12.2344 -19.2417
lclavicle 2.20651e-014 2.54444e-014
lhumerus -33.7375 17.5369 75.1718
lradius 29.4139
lwrist -9.7841
lhand -5.66504 37.9503
lfingers 7.12502
lthumb 20.1543 66.9249
rfemur -17.2979 -5.12232 16.5472
rtibia 37.2882
rfoot -24.0389 -15.908
rtoes -12.5943
lfemur -10.5854 2.85544 -17.2664
ltibia 22.7935
lfoot -15.0729 4.67535
ltoes -21.4663
37
root 13.3137 17.9405 -1.91723 4.08343 -41.9179 3.28948
lowerback -0.73691 0.752118 -3.87374
upperback 0.564914 1.02639 2.23626
thorax 0.885222 0.480098 4.49535
lowerneck -19.2788 -4.90842 -10.7799
upperneck 26.5262 -5.59116 6.51001
head 12.5107 -2.79083 3.3705
rclavicle -6.57977e-014 -6.36111e-015
rhumerus -31.2686 -26.0922 -66.9981
rradius 29.1905
rwrist -0.500966
rhand -13.3758 11.0363
rfingers 7.12502
rthumb 12.7309 -18.5556
lclavicle -6.57977e-014 -6.36111e-015
lhumerus -33.7867 17.0207 75.6871
lradius 29.42
lwrist -8.92828
lhand -5.68783 38.0961
lfingers 7.12502
lthumb 20.1324 67.0729
rfemur -17.3325 -5.1869 16.6225
rtibia 37.2773
rfoot -23.9798 -16.1617
rtoes -13.5245
lfemur -10.6589 2.78131 -17.1996
ltibia 22.8165
lfoot -14.9302 4.57403
ltoes -20.7735
38
root 13.2999 17.9446 -1.92408 3.93909 -41.7335 3.55919
lowerback -0.648709 0.830977 -4.05504
upperback 0.548859 1.13221 2.12352
thorax 0.806824 0.53485 4.48035
lowerneck -19.0581 -4.96242 -10.8546
upperneck 26.2631 -5.71671 6.71707
head 12.3835 -2.82712 3.43896
rclavicle -5.00937e-014 3.18055e-015
rhumerus -31.7328 -26.9849 -66.3586
rradius 29.0304
rwrist 1.50705
rhand -12.5052 11.9048
rfingers 7.12502
rthumb 13.5701 -17.6329
lclavicle -5.00937e-014 3.18055e-015
lhumerus -33.6167 15.8065 76.2547
lradius 29.1831
lwrist -7.56257
lhand -6.0713 37.9837
lfingers 7.12502
lthumb 19.7638 66.9989
rfemur -17.349 -5.17671 16.4872
rtibia 37.261
rfoot -23.8528 -16.4527
rtoes -14.0417
lfemur -10.7909 2.7375 -17.3732
ltibia 22.8807
lfoot -14.8603 4.43628
ltoes -19.8597
39
root 13.2804 17.9535 -1.93301 3.94176 -41.6237 3.72435
lowerback -0.87148 0.787169 -4.32378
upperback 0.690914 1.08732 2.03857
thorax 1.08 0.500938 4.54956
lowerneck -19.2132 -4.89208 -10.3722
upperneck 26.1056 -5.69424 6.5527
head 12.326 -2.78325 3.29323
rclavicle 4.27387e-014 -1.35174e-014
rhumerus -31.6254 -27.3597 -66.4876
rradius 28.9753
rwrist 2.35203
rhand -12.2323 11.9264
rfingers 7.12502
rthumb 13.8331 -17.5936
lclavicle 4.27387e-014 -1.35174e-014
lhumerus -33.2863 15.2609 76.4044
lradius 28.9196
lwrist -6.93129
lhand -6.00565 37.7795
lfingers 7.12502
lthumb 19.8269 66.7882
rfemur -17.3941 -4.86536 16.4585
rtibia 37.235
rfoot -24.0039 -16.6526
rtoes -12.6587
lfemur -11.0328 2.47351 -17.4027
ltibia 23.0008
lfoot -14.9437 4.32972
ltoes -18.7334
40
root 13.2679 17.9575 -1.94106 4.06137 -41.585 3.71146
lowerback -1.02493 0.671751 -4.50061
upperback 0.775993 0.941754 2.10583
thorax 1.26642 0.419322 4.72127
lowerneck -19.3386 -4.75024 -9.96162
upperneck 26.0518 -5.49931 6.19644
head 12.2837 -2.69761 3.11758
rclavicle -2.21645e-014 -1.59028e-014
rhumerus -31.2252 -27.1437 -66.8243
rradius 28.9502
rwrist 2.41439
rhand -12.3799 11.6084
rfingers 7.12502
rthumb 13.6909 -17.9213
lclavicle -2.21645e-014 -1.59028e-014
lhumerus -33.3715 16.0442 76.2435
lradius 28.9613
lwrist -7.29837
lhand -5.91455 37.5355
lfingers 7.12502
lthumb 19.9145 66.5351
rfemur -17.4731 -4.56814 16.5498
rtibia 37.2002
rfoot -24.1657 -16.826
rtoes -11.9747
lfemur -11.1974 2.38981 -17.3211
ltibia 23.1402
lfoot -15.0113 4.25938
ltoes -22.6643
41
root 13.2676 17.9574 -1.9426 4.13294 -41.4788 3.68429
lowerback -0.886821 0.689977 -4.46086
upperback 0.676083 0.957677 2.2213
thorax 1.08272 0.434297 4.81603
lowerneck -19.1927 -4.79923 -10.3277
upperneck 26.1115 -5.49994 6.2976
head 12.2948 -2.72551 3.22063
rclavicle 1.55052e-014 -5.80451e-014
rhumerus -31.2391 -26.8062 -66.6141
rradius 28.9463
rwrist 2.16018
rhand -12.5429 11.3904
rfingers 7.12502
rthumb 13.5337 -18.1498
lclavicle 1.55052e-014 -5.80451e-014
lhumerus -33.7191 16.5658 76.3407
lradius 29.1376
lwrist -7.7111
lhand -6.67294 37.2857
lfingers 7.12502
lthumb 19.1854 66.3594
rfemur -17.4858 -4.70097 16.5804
rtibia 37.1241
rfoot -24.1313 -16.8397
rtoes -12.2458
lfemur -11.2967 2.284 -17.2958
ltibia 23.2994
lfoot -15.213 4.18819
ltoes -16.742
42
root 13.2709 17.9595 -1.93938 4.2645 -41.3831 3.49974
lowerback -0.739489 0.718842 -4.20337
upperback 0.588595 0.985568 2.30471
thorax 0.909122 0.456231 4.75369
lowerneck -19.0683 -4.82511 -10.5334
upperneck 26.1571 -5.49427 6.3212
head 12.2958 -2.74394 3.2674
rclavicle -1.40143e-014 3.73715e-014
rhumerus -31.2554 -26.498 -66.4782
rradius 28.8563
rwrist 1.79369
rhand -12.7806 10.9505
rfingers 7.12502
rthumb 13.3047 -18.6048
lclavicle -1.40143e-014 3.73715e-014
lhumerus -33.9275 16.5297 76.4894
lradius 29.2676
lwrist -7.3447
lhand -8.17674 37.3266
lfingers 7.12502
lthumb 17.7388 66.5375
rfemur -17.4198 -5.10038 16.6997
rtibia 37.0413
rfoot -24.0672 -16.5956
rtoes -12.9621
lfemur -11.3549 2.01916 -17.1378
ltibia 23.424
lfoot -15.4181 4.14097
ltoes -6.85369
43
root 13.2659 17.9636 -1.93687 4.51171 -41.3395 3.12327
lowerback -0.715711 0.621843 -3.90319
upperback 0.578612 0.850429 2.37494
thorax 0.903782 0.390354 4.65424
lowerneck -19.1752 -4.64624 -9.96706
upperneck 26.287 -5.22555 5.68381
head 12.3029 -2.64975 2.97301
rclavicle -5.97348e-014 3.97569e-014
rhumerus -31.168 -25.9926 -66.8265
rradius 28.9112
rwrist 1.62436
rhand -13.1384 10.6551
rfingers 7.12502
rthumb 12.9598 -18.9224
lclavicle -5.97348e-014 3.97569e-014
lhumerus -34.1092 16.6855 76.3784
lradius 29.3533
lwrist -6.80915
lhand -8.77404 37.5018
lfingers 7.12502
lthumb 17.1639 66.7637
rfemur -17.3825 -5.22747 17.0209
rtibia 36.9963
rfoot -23.9724 -16.6013
rtoes -13.861
lfemur -11.3545 1.73518 -16.764
ltibia 23.4683
lfoot -15.3641 4.03471
ltoes -7.70105
44
root 13.2599 17.961 -1.93789 4.5798 -41.1919 3.16772
lowerback -0.813765 0.521167 -3.88807
upperback 0.585372 0.719873 2.30545
thorax 0.98112 0.323326 4.573
lowerneck -19.3402 -4.5346 -9.3854
upperneck 26.4764 -5.06897 5.08878
head 12.3601 -2.59866 2.67386
rclavicle 1.73937e-014 -1.43125e-014
rhumerus -31.1951 -25.4808 -67.2875
rradius 29.2147
rwrist 1.31745
rhand -13.5279 10.6032
rfingers 7.12502
rthumb 12.5843 -18.9978
lclavicle 1.73937e-014 -1.43125e-014
lhumerus -34.1976 16.9559 76.2512
lradius 29.3741
lwrist -6.76213
lhand -8.03933 37.5194
lfingers 7.12502
lthumb 17.871 66.7183
rfemur -17.5025 -5.26437 17.0256
rtibia 36.9913
rfoot -23.8464 -16.8314
rtoes -14.0764
lfemur -11.5106 1.519 -16.7672
ltibia 23.4838
lfoot -15.1566 4.06839
ltoes -10.095
